{"glyphs":{"0":{"ha":712,"x_min":9,"x_max":707,"o":"m 340 968 l 707 968 l 707 319 l 366 -5 l 11 -5 l 9 654 l 340 968 m 247 788 l 247 184 l 467 184 l 467 788 l 247 788 z "},"1":{"ha":303,"x_min":35,"x_max":267,"o":"m 35 971 l 267 971 l 267 117 l 46 -73 l 35 -73 l 35 971 z "},"2":{"ha":713,"x_min":22,"x_max":685,"o":"m 26 269 l 306 520 q 465 663 385 591 l 465 772 l 22 772 q 99 852 60 812 q 216 975 157 913 l 684 975 l 684 709 q 490 528 587 618 q 262 317 376 422 l 262 184 l 685 184 q 587 92 635 138 q 489 1 538 47 l 27 1 q 26 150 27 75 l 26 269 z "},"3":{"ha":713,"x_min":-33,"x_max":684,"o":"m -33 781 q 71 879 19 830 q 168 970 119 925 l 555 970 l 555 708 q 466 630 511 669 l 420 589 l 684 589 l 684 316 l 456 118 q 325 3 391 61 l -3 3 l -3 189 l 433 189 l 433 410 l 152 410 l 244 496 q 325 573 284 535 l 325 781 l -33 781 z "},"4":{"ha":712,"x_min":65,"x_max":766,"o":"m 65 800 l 170 879 l 271 955 l 271 465 l 407 465 l 407 977 l 621 977 l 621 465 l 766 465 l 621 329 l 621 66 l 424 -90 l 407 -90 l 407 313 l 65 313 l 65 800 z "},"5":{"ha":711,"x_min":34,"x_max":684,"o":"m 34 823 q 92 873 63 848 q 210 976 151 925 l 665 976 l 481 785 l 281 785 l 281 599 l 495 599 l 684 444 l 684 314 q 364 34 524 174 l 325 0 l 34 0 l 34 178 l 39 184 l 361 184 l 444 184 l 444 407 l 216 407 l 34 566 l 34 823 z "},"6":{"ha":712,"x_min":19,"x_max":713,"o":"m 713 587 l 713 317 q 378 6 545 162 q 371 0 374 3 l 19 0 l 19 817 q 106 888 62 852 q 210 971 158 930 l 621 971 l 500 869 l 389 776 l 251 776 l 251 471 l 365 587 l 713 587 m 271 405 l 271 186 l 494 186 l 494 405 l 271 405 z "},"7":{"ha":712,"x_min":2,"x_max":657,"o":"m 657 784 l 473 614 l 473 195 q 359 90 416 142 q 252 -9 306 40 l 252 484 l 432 652 l 432 780 l 2 780 l 81 861 l 187 968 l 653 968 q 655 881 654 924 q 657 784 656 833 z "},"8":{"ha":712,"x_min":7,"x_max":703,"o":"m 243 757 l 243 581 l 467 581 l 467 757 l 243 757 m 243 396 l 243 177 l 465 177 l 465 532 l 351 396 l 243 396 m 376 968 l 703 968 l 703 309 l 363 -4 l 7 -4 l 7 629 l 376 968 z "},"9":{"ha":712,"x_min":5,"x_max":669,"o":"m 207 971 l 458 971 l 669 810 l 669 277 l 302 -3 l 83 -3 l 83 165 l 99 186 l 433 186 l 433 406 l 182 406 l 5 542 l 5 817 l 207 971 m 238 783 l 238 583 l 435 583 l 435 783 l 238 783 z "},"\u0000":{"ha":694,"x_min":68,"x_max":627,"o":"m 68 0 l 68 972 l 627 972 l 627 0 l 68 0 m 102 34 l 593 34 l 593 939 l 102 939 l 102 34 m 220 779 q 260 808 241 798 q 336 828 296 828 q 436 796 398 828 q 474 709 474 764 q 458 643 474 676 q 399 555 443 609 q 332 465 357 500 q 308 398 308 430 q 324 308 308 372 l 302 308 q 279 408 279 374 q 334 556 279 460 q 389 703 389 652 q 367 764 389 742 q 305 787 345 787 q 258 775 279 787 q 220 748 241 765 l 220 779 m 264 227 l 302 266 q 316 273 310 273 q 331 265 323 273 l 369 224 q 375 211 375 217 q 368 196 375 203 l 330 154 q 316 144 321 144 q 302 151 309 144 l 261 199 q 256 212 256 205 q 264 227 256 218 z "}," ":{"ha":355,"x_min":0,"x_max":0,"o":""},"!":{"ha":352,"x_min":45,"x_max":290,"o":"m 290 87 l 168 -37 q 45 -161 106 -98 q 47 428 47 45 l 50 978 l 290 978 l 290 434 l 98 90 l 290 90 l 290 87 z "},"\"":{"ha":486,"x_min":13,"x_max":473,"o":"m 231 804 l 127 727 q 13 642 71 685 q 14 731 14 686 l 15 970 l 117 970 q 227 970 172 970 q 229 882 228 926 l 231 804 m 473 804 q 369 727 420 766 q 255 642 312 684 q 256 813 256 728 q 256 970 256 891 l 359 970 q 469 970 414 970 q 471 893 470 932 q 473 804 471 848 z "},"#":{"ha":939,"x_min":-50,"x_max":952,"o":"m 781 229 l 565 37 l 566 480 q 496 416 531 448 q 425 349 460 382 l 425 199 l 207 199 l 208 344 l -50 342 q 45 439 -2 391 l 123 521 l 208 521 l 208 616 l -50 615 l 37 705 q 123 793 81 749 l 210 793 l 210 970 l 425 971 l 425 793 l 565 793 l 565 972 l 773 972 l 775 793 l 952 793 l 875 713 q 782 617 829 665 l 777 617 l 778 521 l 944 521 l 779 350 l 781 229 m 565 770 l 426 626 l 427 527 q 493 528 460 528 q 564 528 529 528 l 565 770 z "},"$":{"ha":622,"x_min":11,"x_max":613,"o":"m 157 1078 l 374 1078 l 374 948 l 569 948 l 569 769 l 372 581 l 436 581 l 613 432 l 613 336 l 288 44 l 288 -98 l 71 -98 l 71 31 l 11 31 l 11 185 l 236 399 l 236 224 l 391 224 l 391 407 l 236 407 l 236 406 l 179 407 l 11 549 l 11 779 l 157 918 l 157 1078 m 235 764 l 235 582 l 359 582 l 359 764 l 235 764 z "},"%":{"ha":1234,"x_min":13,"x_max":1194,"o":"m 252 972 l 516 972 l 516 654 l 271 495 l 14 495 l 13 819 l 252 972 m 185 884 l 185 588 l 343 588 l 343 884 l 185 884 m 929 479 l 1194 479 l 1194 160 l 947 1 l 692 1 l 690 325 l 929 479 m 862 391 l 862 94 l 1021 94 l 1021 391 l 862 391 m 585 972 l 796 972 l 796 610 l 629 484 l 629 1 l 400 1 l 400 368 l 585 509 l 585 972 z "},"&":{"ha":772,"x_min":-14,"x_max":715,"o":"m 375 968 l 715 968 l 715 680 l 368 359 l 363 355 l 220 355 l 220 181 l 492 181 l 492 397 l 715 397 l 715 328 l 566 181 l 715 181 l 715 -2 l 492 -2 l 492 121 l 367 -2 l -14 -2 l -14 365 l 176 522 l 176 821 l 375 968 m 397 778 l 397 677 l 259 542 l 492 542 l 492 778 l 397 778 z "},"'":{"ha":222,"x_min":13,"x_max":231,"o":"m 231 804 l 127 727 q 13 642 71 685 q 14 731 14 686 l 15 970 l 117 970 q 227 970 172 970 q 229 882 228 926 l 231 804 z "},"(":{"ha":406,"x_min":28,"x_max":411,"o":"m 411 1143 l 411 901 l 248 901 l 248 14 l 411 14 l 411 -237 l 28 140 l 28 743 l 411 1143 z "},")":{"ha":431,"x_min":7,"x_max":389,"o":"m 7 1143 l 389 743 l 389 140 l 7 -237 l 7 14 l 170 14 l 170 901 l 7 901 l 7 1143 z "},"*":{"ha":349,"x_min":11,"x_max":329,"o":"m 11 974 l 22 974 l 71 920 q 138 846 104 883 l 138 974 l 329 974 l 329 930 l 225 814 l 329 814 l 329 626 l 302 626 l 193 747 l 193 626 l 11 626 l 11 663 l 111 773 l 11 773 l 11 974 z "},"+":{"ha":500,"x_min":-103,"x_max":534,"o":"m 150 614 l 359 614 l 359 420 l 534 420 q 364 244 449 332 l 359 244 l 359 127 l 150 -41 l 150 243 l -103 242 q -10 338 -56 290 q 71 420 31 379 l 150 420 l 150 614 z "},",":{"ha":235,"x_min":-2,"x_max":216,"o":"m 216 3 l 92 -89 q -2 -159 45 -123 q -1 -70 -1 -115 l 0 169 q 106 170 53 170 l 212 170 q 214 70 213 120 l 216 3 z "},"-":{"ha":600,"x_min":-12,"x_max":625,"o":"m -12 154 q 97 267 42 210 q 161 332 129 299 l 625 332 q 522 225 573 279 q 454 156 488 191 l 209 155 q -12 154 98 155 z "},".":{"ha":239,"x_min":-16,"x_max":210,"o":"m -16 -1 l -16 214 l 210 214 l 210 -1 l -16 -1 z "},"/":{"ha":430,"x_min":23,"x_max":398,"o":"m 198 924 l 398 924 l 398 581 l 240 460 l 240 3 l 23 3 l 23 351 l 198 484 l 198 924 z "},":":{"ha":271,"x_min":7,"x_max":231,"o":"m 231 606 l 48 608 l 14 608 l 14 671 l 16 772 l 122 772 q 228 772 175 772 q 230 693 229 732 l 231 606 m 224 -1 q 117 0 171 0 q 7 1 62 1 l 7 64 l 9 165 l 115 165 q 221 165 168 165 q 223 86 222 126 l 224 -1 z "},";":{"ha":280,"x_min":18,"x_max":237,"o":"m 237 600 l 54 601 l 20 601 l 20 665 l 21 765 l 127 765 q 233 766 180 766 q 235 686 234 726 l 237 600 m 236 -31 l 113 -123 q 18 -193 65 -157 q 19 -104 19 -149 l 20 135 q 126 136 73 136 l 233 136 q 235 36 233 86 l 236 -31 z "},"<":{"ha":429,"x_min":6,"x_max":382,"o":"m 382 806 l 382 602 l 224 602 l 224 313 l 382 313 l 382 94 q 232 240 307 168 q 6 459 119 349 q 382 806 194 633 z "},"=":{"ha":568,"x_min":-63,"x_max":574,"o":"m -63 503 q 27 595 -18 549 l 110 681 l 574 681 q 460 563 517 622 l 404 505 q 157 504 280 504 l -63 503 m -63 253 q 9 328 -27 290 l 110 432 l 574 432 q 404 255 489 343 q 149 254 277 254 l -63 253 z "},">":{"ha":370,"x_min":9,"x_max":385,"o":"m 9 602 l 9 806 q 385 459 197 633 q 159 240 272 349 q 9 94 84 168 l 9 313 l 167 313 l 167 602 l 9 602 z "},"?":{"ha":605,"x_min":-58,"x_max":617,"o":"m 193 -9 l 193 191 l 427 192 l 427 168 l 296 68 q 193 -9 244 29 m 193 269 l 193 480 l 373 641 l 373 773 l -58 772 q 31 868 -14 821 l 124 970 l 316 968 q 617 966 467 967 q 616 870 616 918 l 616 774 l 427 610 l 427 470 l 193 269 z "},"@":{"ha":713,"x_min":9,"x_max":694,"o":"m 428 833 q 529 831 478 831 l 629 828 l 629 319 q 670 317 650 317 q 694 316 682 316 l 694 123 l 692 123 l 567 125 l 435 259 q 350 164 404 198 q 264 142 309 142 q 168 165 218 142 q 30 349 73 216 q 9 494 9 421 q 27 632 9 562 q 169 829 69 774 q 258 850 213 850 q 292 849 263 850 q 359 831 320 848 q 428 776 404 809 l 428 833 m 404 637 q 375 667 391 654 q 337 683 359 681 q 330 684 334 684 q 285 668 310 684 q 244 605 260 652 q 229 488 229 552 q 243 373 229 425 q 284 314 259 328 q 321 303 303 303 q 333 304 327 303 q 372 324 355 309 q 404 357 389 339 l 404 637 z "},"A":{"ha":779,"x_min":14,"x_max":724,"o":"m 14 636 l 222 838 q 350 963 286 901 l 618 971 q 713 974 666 972 l 724 331 l 492 169 l 486 766 l 302 769 q 248 770 275 769 l 246 589 l 460 585 q 286 401 373 493 l 245 401 l 242 -6 l 20 -162 q 17 323 18 81 l 14 636 z "},"B":{"ha":795,"x_min":46,"x_max":747,"o":"m 49 966 l 340 968 q 633 970 487 968 l 635 811 l 636 719 q 549 643 592 681 q 480 583 514 612 l 747 585 l 747 310 q 574 155 661 233 l 402 -1 l 226 -4 l 46 -7 q 48 577 47 285 q 49 966 48 772 m 404 578 l 404 772 q 338 775 371 774 q 295 777 317 777 l 294 486 l 404 578 m 294 412 l 294 177 q 397 176 345 176 l 520 175 q 515 292 518 234 q 511 412 513 352 l 294 412 z "},"C":{"ha":612,"x_min":16,"x_max":616,"o":"m 18 652 q 245 863 132 757 q 369 977 307 920 l 444 976 l 572 975 l 572 774 q 358 774 465 774 l 251 774 l 247 373 q 245 188 246 281 q 430 186 338 187 q 616 184 523 185 q 480 42 548 113 q 437 -3 458 19 l 16 -1 l 16 119 q 16 355 16 239 q 18 652 17 504 z "},"D":{"ha":789,"x_min":41,"x_max":740,"o":"m 50 974 q 234 972 142 972 l 541 969 q 648 881 594 925 q 740 805 694 843 l 736 581 q 731 324 734 452 q 615 214 673 269 l 386 0 l 248 -1 l 41 -3 l 45 417 q 50 974 47 695 m 282 777 l 282 176 l 501 176 l 501 777 l 282 777 z "},"E":{"ha":652,"x_min":32,"x_max":682,"o":"m 32 829 q 97 886 64 858 l 195 971 l 682 971 l 486 776 l 266 776 l 266 591 l 646 591 l 442 385 l 266 385 l 266 200 l 604 200 l 370 -3 l 193 -3 q 42 123 118 60 q 32 133 37 128 l 32 829 z "},"F":{"ha":588,"x_min":33,"x_max":627,"o":"m 33 823 l 92 867 q 222 970 157 919 l 627 970 l 427 780 l 260 780 l 260 598 l 581 598 l 380 414 l 258 414 l 258 25 q 146 -65 202 -20 q 33 -155 90 -111 l 33 823 z "},"G":{"ha":718,"x_min":16,"x_max":701,"o":"m 627 971 l 627 776 l 243 776 l 243 180 l 460 180 l 460 504 l 701 504 l 701 322 q 528 163 614 243 l 354 3 l 16 3 l 16 648 l 279 891 q 369 974 324 932 q 451 973 410 974 q 627 971 539 972 z "},"H":{"ha":796,"x_min":54,"x_max":734,"o":"m 54 977 l 283 977 l 283 606 l 516 609 l 516 977 l 734 977 l 734 335 l 516 178 l 516 606 q 486 578 500 593 q 305 414 395 496 l 283 414 l 283 10 l 54 -155 l 54 977 z "},"I":{"ha":375,"x_min":50,"x_max":281,"o":"m 50 972 l 281 972 l 281 79 l 61 -120 l 50 -120 l 50 972 z "},"J":{"ha":504,"x_min":-149,"x_max":332,"o":"m 90 970 l 332 970 l 332 824 l 332 275 l -39 -14 l -149 -14 l -149 207 l 90 207 l 90 970 z "},"K":{"ha":758,"x_min":46,"x_max":711,"o":"m 711 601 l 711 316 l 484 157 l 484 408 l 269 408 l 269 5 l 46 -151 l 46 966 l 269 966 l 269 490 q 376 593 323 541 l 376 966 l 602 966 l 602 733 q 536 674 569 703 l 455 600 l 562 600 l 711 601 z "},"L":{"ha":561,"x_min":46,"x_max":586,"o":"m 46 968 l 277 968 l 277 182 l 586 182 q 477 82 532 132 q 380 -7 429 38 l 46 -7 l 46 968 z "},"M":{"ha":1084,"x_min":15,"x_max":1016,"o":"m 631 308 l 403 132 l 403 784 l 237 784 l 237 3 l 15 -169 l 15 642 q 207 820 111 730 q 371 972 289 896 l 632 972 l 632 870 l 732 972 l 1016 972 l 1016 328 q 797 120 907 224 l 797 784 l 631 784 l 631 308 z "},"N":{"ha":745,"x_min":16,"x_max":682,"o":"m 357 970 l 682 970 l 682 326 l 449 159 l 449 772 l 241 772 l 241 10 l 16 -151 l 16 645 q 51 678 33 661 q 357 970 204 824 z "},"O":{"ha":782,"x_min":16,"x_max":714,"o":"m 348 971 l 714 971 l 714 322 l 373 0 l 18 0 l 16 658 l 348 971 m 255 791 l 255 189 l 474 189 l 474 791 l 255 791 z "},"P":{"ha":672,"x_min":45,"x_max":667,"o":"m 45 836 q 156 914 101 876 l 240 974 l 667 974 l 667 706 q 545 597 606 651 q 324 399 435 498 l 258 399 l 258 68 l 45 -94 l 45 836 m 257 795 l 257 578 l 432 578 l 432 795 l 257 795 z "},"Q":{"ha":794,"x_min":24,"x_max":722,"o":"m 350 971 l 710 971 l 710 333 l 584 214 l 722 214 l 722 31 l 481 -148 l 474 -148 l 474 110 l 374 16 l 26 16 l 24 663 l 350 971 m 474 201 l 474 794 l 258 794 l 258 201 l 474 201 z "},"R":{"ha":710,"x_min":38,"x_max":686,"o":"m 38 799 q 265 971 151 885 l 607 971 l 607 731 l 590 714 l 467 594 l 686 594 l 686 332 l 448 157 l 448 405 l 272 405 l 272 27 l 38 -144 l 38 799 m 279 499 l 387 593 l 387 791 l 272 791 l 272 499 l 279 499 z "},"S":{"ha":668,"x_min":7,"x_max":656,"o":"m 7 821 q 94 897 50 859 l 182 973 l 635 973 l 453 783 l 253 783 l 253 597 l 467 597 l 656 444 l 656 313 q 454 137 555 225 l 297 0 l 7 0 l 7 166 l 250 404 l 250 184 l 416 184 l 416 406 l 189 406 l 7 565 l 7 821 z "},"T":{"ha":581,"x_min":9,"x_max":652,"o":"m 465 791 l 466 348 l 467 52 q 275 -120 372 -34 q 241 -151 258 -136 l 241 787 l 9 787 l 9 972 l 652 972 q 536 860 593 916 q 465 791 500 825 z "},"U":{"ha":838,"x_min":46,"x_max":770,"o":"m 423 0 l 46 0 l 46 968 l 277 968 l 277 190 l 541 190 l 541 968 l 770 968 l 770 332 q 564 135 667 233 q 423 0 494 67 z "},"V":{"ha":843,"x_min":52,"x_max":779,"o":"m 431 0 l 269 0 l 52 178 l 52 972 l 284 972 l 284 191 l 548 191 l 548 972 l 779 972 l 779 334 q 602 164 690 249 l 431 0 z "},"W":{"ha":1130,"x_min":58,"x_max":1075,"o":"m 243 5 l 153 86 q 58 170 105 128 l 58 968 l 290 968 l 290 194 l 446 194 l 446 968 l 683 968 l 683 340 l 312 5 l 243 5 m 549 5 l 549 194 l 838 194 l 838 968 l 1075 968 l 1075 331 q 903 168 989 250 q 732 5 817 87 l 549 5 z "},"X":{"ha":751,"x_min":42,"x_max":692,"o":"m 42 -169 l 43 284 l 178 389 l 43 389 l 45 970 l 269 970 l 269 471 l 361 595 l 460 596 l 460 970 l 692 970 l 692 701 l 558 596 l 692 596 l 692 319 l 584 222 l 460 111 l 460 503 l 393 387 l 269 389 l 269 -3 l 42 -169 z "},"Y":{"ha":734,"x_min":40,"x_max":725,"o":"m 308 393 l 40 393 l 40 969 l 272 969 l 272 596 l 488 596 l 488 969 l 725 969 l 725 710 l 414 422 l 414 30 l 312 -46 q 166 -155 239 -101 l 166 279 l 308 393 z "},"Z":{"ha":652,"x_min":-27,"x_max":630,"o":"m -23 266 l 155 425 q 412 656 283 541 l 412 744 l -27 744 l 165 965 l 629 965 l 629 641 q 427 453 528 547 q 211 252 319 352 l 211 215 l 630 215 l 545 135 q 436 0 490 50 l -22 0 q -22 112 -22 56 q -23 266 -22 189 z "},"[":{"ha":514,"x_min":81,"x_max":440,"o":"m 81 -97 l 81 982 l 94 994 l 315 1156 l 440 1156 l 440 985 l 302 985 l 302 -51 l 440 -51 l 440 -221 l 249 -221 l 81 -97 z "},"\\":{"ha":386,"x_min":-22,"x_max":353,"o":"m 178 924 l 178 484 l 353 351 l 353 3 l 136 3 l 136 460 l -22 581 l -22 924 l 178 924 z "},"]":{"ha":514,"x_min":81,"x_max":440,"o":"m 440 -97 l 273 -221 l 81 -221 l 81 -51 l 219 -51 l 219 985 l 81 985 l 81 1156 l 207 1156 l 427 994 l 440 982 l 440 -97 z "},"^":{"ha":688,"x_min":11,"x_max":656,"o":"m 11 654 l 332 1029 l 656 654 l 403 654 l 403 812 l 249 812 l 249 654 l 11 654 z "},"_":{"ha":1000,"x_min":3,"x_max":1006,"o":"m 3 -5 q 112 108 57 52 q 176 174 144 140 l 1006 174 q 903 66 954 120 q 836 -3 869 32 q 224 -4 347 -3 q 3 -5 113 -4 z "},"`":{"ha":289,"x_min":-3,"x_max":269,"o":"m 269 839 l 238 714 l 203 576 l 147 645 q -3 831 73 738 q 77 896 37 863 q 162 966 119 930 l 219 898 q 269 839 244 869 z "},"a":{"ha":783,"x_min":22,"x_max":731,"o":"m 22 636 l 229 838 q 357 963 293 901 l 626 971 q 720 974 673 972 l 731 331 l 500 169 l 493 766 l 310 769 q 255 770 282 769 l 254 589 l 467 585 q 293 401 380 493 l 252 401 l 250 -6 l 28 -162 q 24 323 26 81 l 22 636 z "},"b":{"ha":797,"x_min":53,"x_max":754,"o":"m 56 966 l 347 968 q 640 970 494 968 l 642 811 l 643 719 q 555 643 599 681 q 487 583 521 612 l 754 585 l 754 310 q 581 155 668 233 l 409 -1 l 233 -4 l 53 -7 q 55 577 54 285 q 56 966 55 772 m 410 578 l 410 772 q 345 775 378 774 q 302 777 323 777 l 301 486 l 410 578 m 301 412 l 300 177 q 404 176 352 176 l 527 175 q 522 292 525 234 q 517 412 520 352 l 301 412 z "},"c":{"ha":612,"x_min":18,"x_max":620,"o":"m 22 652 q 250 863 136 757 q 373 977 311 920 l 448 976 l 576 975 l 576 781 q 362 781 469 781 l 255 781 l 251 373 q 249 188 250 281 q 434 186 342 187 q 620 184 527 185 q 484 42 552 113 l 441 -3 q 229 1 335 -1 q 18 6 123 4 q 20 355 19 181 q 22 652 21 504 z "},"d":{"ha":793,"x_min":47,"x_max":747,"o":"m 56 974 q 241 972 149 972 l 547 969 q 655 881 601 925 q 747 805 701 843 l 743 581 q 738 324 741 452 q 622 214 680 269 l 393 0 l 255 -1 l 47 -3 l 56 974 m 289 777 l 289 176 l 508 176 l 508 777 l 289 777 z "},"e":{"ha":661,"x_min":45,"x_max":695,"o":"m 45 829 q 111 886 78 858 l 208 971 l 695 971 l 499 776 l 279 776 l 279 591 l 659 591 l 456 385 l 279 385 l 279 200 l 618 200 l 384 -3 l 207 -3 q 56 123 132 60 q 45 133 51 128 l 45 829 z "},"f":{"ha":596,"x_min":52,"x_max":646,"o":"m 52 823 l 111 867 q 241 970 176 919 l 646 970 l 446 780 l 279 780 l 279 598 l 600 598 l 399 414 l 277 414 l 277 25 q 165 -65 221 -20 q 52 -155 109 -111 l 52 823 z "},"g":{"ha":721,"x_min":24,"x_max":709,"o":"m 635 971 l 635 776 l 252 776 l 252 180 l 469 180 l 469 504 l 709 504 l 709 322 q 536 163 623 243 l 362 3 l 24 3 l 24 648 l 287 891 q 377 974 332 932 q 459 973 418 974 q 635 971 547 972 z "},"h":{"ha":789,"x_min":51,"x_max":731,"o":"m 51 977 l 281 977 l 281 606 l 513 606 l 513 977 l 731 977 l 731 335 l 513 178 l 513 600 q 302 414 393 496 l 281 414 l 281 10 l 51 -155 l 51 977 z "},"i":{"ha":375,"x_min":50,"x_max":281,"o":"m 50 972 l 281 972 l 281 79 l 61 -120 l 50 -120 l 50 972 z "},"j":{"ha":504,"x_min":-149,"x_max":332,"o":"m 90 970 l 332 970 l 332 824 l 332 275 l -39 -14 l -149 -14 l -149 207 l 90 207 l 90 970 z "},"k":{"ha":749,"x_min":53,"x_max":718,"o":"m 718 601 l 718 316 l 491 157 l 491 408 l 275 408 l 275 5 l 53 -151 l 53 966 l 275 966 l 275 490 q 383 593 330 541 l 383 966 l 608 966 l 608 733 q 543 674 576 703 l 462 600 l 569 600 l 718 601 z "},"l":{"ha":560,"x_min":53,"x_max":593,"o":"m 53 968 l 283 968 l 283 182 l 593 182 q 484 82 538 132 q 387 -7 436 38 l 53 -7 l 53 968 z "},"m":{"ha":1088,"x_min":23,"x_max":1024,"o":"m 639 308 l 411 132 l 411 784 l 245 784 l 245 3 l 23 -169 l 23 642 q 215 820 119 730 q 379 972 297 896 l 640 972 l 640 870 l 741 972 l 1024 972 l 1024 328 q 805 120 915 224 l 805 784 l 639 784 l 639 308 z "},"n":{"ha":755,"x_min":23,"x_max":689,"o":"m 364 970 l 689 970 l 689 326 l 456 159 l 456 772 l 249 772 l 249 10 l 23 -151 l 23 645 q 58 678 41 661 q 364 970 212 824 z "},"o":{"ha":786,"x_min":32,"x_max":730,"o":"m 363 971 l 730 971 l 730 322 l 389 0 l 34 0 l 32 658 l 363 971 m 271 791 l 271 189 l 490 189 l 490 791 l 271 791 z "},"p":{"ha":682,"x_min":53,"x_max":674,"o":"m 53 836 q 163 914 109 876 l 248 974 l 674 974 l 674 706 q 552 597 613 651 q 332 399 442 498 l 266 399 l 266 68 l 53 -94 l 53 836 m 264 795 l 264 578 l 439 578 l 439 795 l 264 795 z "},"q":{"ha":794,"x_min":31,"x_max":729,"o":"m 357 971 l 717 971 l 717 333 l 591 214 l 729 214 l 729 31 l 488 -148 l 481 -148 l 481 110 l 381 16 l 33 16 l 31 663 l 357 971 m 481 201 l 481 794 l 264 794 l 264 201 l 481 201 z "},"r":{"ha":717,"x_min":50,"x_max":698,"o":"m 50 799 q 277 971 163 885 l 618 971 l 618 731 l 602 714 l 479 594 l 698 594 l 698 332 l 460 157 l 460 405 l 283 405 l 283 27 l 50 -144 l 50 799 m 291 499 l 398 593 l 398 791 l 283 791 l 283 499 l 291 499 z "},"s":{"ha":670,"x_min":14,"x_max":663,"o":"m 14 821 q 101 897 57 859 l 189 973 l 642 973 l 460 783 l 260 783 l 260 597 l 473 597 l 663 444 l 663 313 q 461 137 562 225 l 304 0 l 14 0 l 14 166 l 256 404 l 256 184 l 422 184 l 422 406 l 195 406 l 14 565 l 14 821 z "},"t":{"ha":575,"x_min":9,"x_max":652,"o":"m 465 791 l 466 348 l 467 52 q 275 -120 372 -34 q 241 -151 258 -136 l 241 787 l 9 787 l 9 972 l 652 972 q 536 860 593 916 q 465 791 500 825 z "},"u":{"ha":830,"x_min":50,"x_max":774,"o":"m 427 0 l 50 0 l 50 968 l 281 968 l 281 190 l 545 190 l 545 968 l 774 968 l 774 332 q 568 135 671 233 q 427 0 498 67 z "},"v":{"ha":846,"x_min":59,"x_max":786,"o":"m 438 0 l 277 0 l 59 178 l 59 972 l 292 972 l 292 191 l 555 191 l 555 972 l 786 972 l 786 334 q 609 164 698 249 l 438 0 z "},"w":{"ha":1130,"x_min":58,"x_max":1075,"o":"m 243 5 l 153 86 q 58 170 105 128 l 58 968 l 290 968 l 290 194 l 446 194 l 446 968 l 683 968 l 683 340 l 312 5 l 243 5 m 549 5 l 549 194 l 838 194 l 838 968 l 1075 968 l 1075 331 q 903 168 989 250 q 732 5 817 87 l 549 5 z "},"x":{"ha":751,"x_min":45,"x_max":696,"o":"m 45 -169 l 46 284 l 182 389 l 47 389 l 48 970 l 272 970 l 272 471 l 364 595 l 464 596 l 464 970 l 696 970 l 696 701 l 562 596 l 696 596 l 696 319 l 587 222 l 464 111 l 464 503 l 397 387 l 272 389 l 272 -3 l 45 -169 z "},"y":{"ha":738,"x_min":47,"x_max":732,"o":"m 315 393 l 47 393 l 47 969 l 279 969 l 279 596 l 494 596 l 494 969 l 732 969 l 732 710 l 420 422 l 420 30 l 319 -46 q 173 -155 246 -101 l 173 279 l 315 393 z "},"z":{"ha":652,"x_min":-27,"x_max":630,"o":"m -23 266 l 155 425 q 412 656 283 541 l 412 744 l -27 744 l 165 965 l 629 965 l 629 641 q 427 453 528 547 q 211 252 319 352 l 211 215 l 630 215 l 545 135 q 436 0 490 50 l -22 0 q -22 112 -22 56 q -23 266 -22 189 z "},"{":{"ha":762,"x_min":-72,"x_max":538,"o":"m 532 1187 l 538 1187 l 538 977 l 380 977 l 380 -13 l 538 -13 l 538 -222 l 138 73 l 138 239 l 54 324 l -72 452 q 21 541 -26 496 q 138 653 79 597 l 138 897 l 532 1187 z "},"|":{"ha":292,"x_min":39,"x_max":271,"o":"m 39 1067 l 271 1067 l 271 -80 l 50 -288 l 39 -288 l 39 1067 z "},"}":{"ha":610,"x_min":3,"x_max":613,"o":"m 9 1194 l 403 903 l 403 660 q 520 547 461 604 q 613 458 566 503 q 486 331 549 395 q 403 245 445 288 l 403 80 l 3 -215 l 3 -6 l 161 -6 l 161 984 l 3 984 l 3 1194 l 9 1194 z "},"~":{"ha":793,"x_min":1,"x_max":846,"o":"m 1 505 l 1 689 l 315 689 l 426 545 l 846 545 l 846 345 l 526 345 l 404 505 l 1 505 z "},"¡":{"ha":250,"x_min":0,"x_max":245,"o":"m 245 730 l 245 728 l 52 728 l 245 383 l 245 -161 l 5 -161 l 2 390 q 0 978 1 772 q 122 854 61 916 l 245 730 z "},"¢":{"ha":567,"x_min":13,"x_max":567,"o":"m 150 851 l 209 851 l 209 1022 l 374 1022 l 374 851 l 551 851 l 375 682 l 214 682 l 214 290 l 567 290 l 384 114 l 374 114 l 374 -67 l 209 -67 l 209 114 l 149 114 l 13 245 l 13 720 l 150 851 z "},"£":{"ha":688,"x_min":-52,"x_max":848,"o":"m 467 969 l 684 969 l 684 777 l 361 777 l 361 564 l 622 564 l 471 370 l 361 370 l 361 172 l 595 172 l 595 355 l 848 356 l 848 351 l 484 -1 l 117 -1 l 117 374 l -52 374 l 117 554 l 117 633 l 467 969 z "},"¤":{"ha":740,"x_min":-73,"x_max":875,"o":"m 250 673 l 250 309 l 445 309 l 445 673 l 250 673 m 584 343 q 631 273 607 308 l 667 217 l 612 73 q 570 -36 591 18 q 523 39 546 1 l 405 228 l 355 195 l 203 195 l 45 37 q -18 -26 14 5 q -35 90 -26 32 l -56 243 l -7 288 l 40 334 l 39 593 l 104 635 l -22 823 q -73 897 -47 860 q 45 890 -14 894 l 199 882 l 282 749 l 332 782 l 498 782 q 561 848 530 815 l 606 897 l 759 877 q 875 862 817 869 l 657 640 l 657 390 l 584 343 z "},"¥":{"ha":688,"x_min":-34,"x_max":680,"o":"m 19 967 l 233 967 l 233 619 l 459 619 l 459 967 l 680 967 l 680 739 l 375 445 l 375 330 l 548 330 l 375 111 l 375 64 q 267 -8 321 28 l 154 -83 l 154 109 l -34 109 l 18 186 q 113 330 65 258 l 161 330 l 290 431 l 19 431 l 19 967 z "},"¦":{"ha":275,"x_min":25,"x_max":256,"o":"m 25 489 l 256 489 l 256 33 l 36 -175 l 25 -175 l 25 489 m 25 1087 l 256 1087 l 256 564 l 36 556 l 25 1087 z "},"§":{"ha":688,"x_min":0,"x_max":652,"o":"m 153 516 l 3 646 l 3 902 q 91 979 47 940 l 179 1055 l 632 1055 l 450 864 l 250 864 l 250 679 l 463 679 l 652 525 l 652 395 q 500 261 576 328 l 649 131 l 649 -124 q 561 -201 605 -163 q 473 -277 517 -239 l 20 -277 l 202 -86 l 402 -86 l 402 98 l 189 98 l 0 252 l 0 383 q 153 516 76 450 m 412 290 l 412 488 l 240 488 l 240 290 l 412 290 z "},"¨":{"ha":536,"x_min":3,"x_max":507,"o":"m 3 757 l 3 972 l 229 972 l 229 757 l 3 757 m 281 757 l 281 972 l 507 972 l 507 757 l 281 757 z "},"©":{"ha":1099,"x_min":24,"x_max":1038,"o":"m 505 962 l 1038 962 l 1038 319 l 543 0 l 26 0 l 24 652 l 505 962 m 290 784 l 290 187 l 789 187 l 789 784 l 290 784 m 378 576 q 505 693 441 634 l 574 757 q 615 756 594 756 q 686 755 650 755 l 686 655 l 508 655 l 505 420 q 505 318 505 370 l 608 317 q 711 316 659 316 q 635 237 673 276 q 611 212 623 224 l 377 213 l 377 411 l 378 576 z "},"®":{"ha":1135,"x_min":64,"x_max":1078,"o":"m 400 650 q 530 749 465 700 l 725 749 l 725 612 l 715 602 q 645 534 680 568 l 770 534 l 770 383 l 634 283 l 634 425 l 534 425 l 534 291 l 400 193 l 400 650 m 538 479 l 600 532 l 600 646 l 534 646 l 534 479 l 538 479 m 545 962 l 1078 962 l 1078 319 l 583 0 l 66 0 l 64 652 l 545 962 m 330 784 l 330 187 l 829 187 l 829 784 l 330 784 z "},"¯":{"ha":694,"x_min":-58,"x_max":735,"o":"m -58 788 q 51 901 -4 844 q 115 966 83 933 l 735 966 q 631 859 683 913 q 564 790 597 825 q 163 789 286 789 q -58 788 52 789 z "},"°":{"ha":457,"x_min":0,"x_max":394,"o":"m 187 972 l 394 972 l 394 723 l 201 599 l 1 599 l 0 852 l 187 972 m 135 903 l 135 671 l 258 671 l 258 903 l 135 903 z "},"´":{"ha":282,"x_min":2,"x_max":273,"o":"m 2 891 q 45 956 24 924 q 94 1029 69 993 l 186 971 q 273 916 230 944 q 147 713 210 815 q 100 638 123 675 l 49 771 q 2 891 26 831 z "},"·":{"ha":201,"x_min":5,"x_max":199,"o":"m 5 462 l 5 646 l 199 646 l 199 462 l 5 462 z "},"¸":{"ha":469,"x_min":75,"x_max":468,"o":"m 395 247 l 428 140 q 377 95 402 117 l 350 71 l 468 71 l 468 -85 l 338 -199 q 263 -264 300 -231 l 75 -264 l 75 -130 l 309 -130 l 309 -54 l 163 -54 l 263 62 l 263 138 l 395 247 z "},"¿":{"ha":507,"x_min":-30,"x_max":645,"o":"m 394 970 l 394 769 l 159 768 l 159 793 q 292 892 225 842 q 394 970 342 931 m 394 692 l 394 480 l 214 319 l 214 187 l 645 188 q 556 92 600 140 q 463 -9 509 41 l 271 -8 q -30 -6 121 -7 l -30 90 q -29 186 -29 138 l 159 350 l 159 490 l 394 692 z "},"À":{"ha":778,"x_min":14,"x_max":724,"o":"m 14 636 l 222 838 q 350 963 286 901 l 618 971 q 713 974 666 972 l 724 331 l 492 169 l 486 766 l 302 769 q 248 770 275 769 l 246 589 l 460 585 q 286 401 373 493 l 245 401 l 242 -6 l 20 -162 q 17 323 18 81 l 14 636 m 584 1223 q 526 1108 555 1165 q 461 981 494 1044 l 422 1061 q 317 1276 370 1168 q 409 1321 363 1298 q 507 1370 458 1345 q 549 1291 528 1331 q 584 1223 566 1257 z "},"Á":{"ha":778,"x_min":14,"x_max":724,"o":"m 496 968 l 446 1099 q 399 1219 422 1158 q 441 1283 420 1251 q 490 1357 466 1320 l 583 1299 q 670 1244 627 1272 q 544 1041 607 1143 q 498 968 521 1004 l 618 971 q 713 974 666 972 l 724 331 l 492 169 l 486 766 l 302 769 q 248 770 275 769 l 246 589 l 460 585 q 286 401 373 493 l 245 401 l 242 -6 l 20 -162 q 17 323 18 81 l 14 636 l 222 838 q 350 963 286 901 l 496 968 z "},"Â":{"ha":778,"x_min":14,"x_max":724,"o":"m 14 636 l 222 838 q 350 963 286 901 l 618 971 q 713 974 666 972 l 724 331 l 492 169 l 486 766 l 302 769 q 248 770 275 769 l 246 589 l 460 585 q 286 401 373 493 l 245 401 l 242 -6 l 20 -162 q 17 323 18 81 l 14 636 m 275 1065 l 494 1322 l 715 1065 l 529 1065 l 529 1173 l 451 1173 l 451 1065 l 275 1065 z "},"Ã":{"ha":778,"x_min":14,"x_max":724,"o":"m 14 636 l 222 838 q 350 963 286 901 l 618 971 q 713 974 666 972 l 724 331 l 492 169 l 486 766 l 302 769 q 248 770 275 769 l 246 589 l 460 585 q 286 401 373 493 l 245 401 l 242 -6 l 20 -162 q 17 323 18 81 l 14 636 m 103 1138 l 103 1299 l 305 1299 l 402 1172 l 684 1172 l 684 997 l 491 997 l 383 1138 l 103 1138 z "},"Ä":{"ha":778,"x_min":14,"x_max":724,"o":"m 14 636 l 222 838 q 350 963 286 901 l 618 971 q 713 974 666 972 l 724 331 l 492 169 l 486 766 l 302 769 q 248 770 275 769 l 246 589 l 460 585 q 286 401 373 493 l 245 401 l 242 -6 l 20 -162 q 17 323 18 81 l 14 636 m 169 1046 l 169 1261 l 395 1261 l 395 1046 l 169 1046 m 447 1046 l 447 1261 l 673 1261 l 673 1046 l 447 1046 z "},"Å":{"ha":778,"x_min":14,"x_max":724,"o":"m 14 636 l 222 838 q 350 963 286 901 l 618 971 q 713 974 666 972 l 724 331 l 492 169 l 486 766 l 302 769 q 248 770 275 769 l 246 589 l 460 585 q 286 401 373 493 l 245 401 l 242 -6 l 20 -162 q 17 323 18 81 l 14 636 m 494 1353 l 701 1353 l 701 1103 l 508 979 l 308 979 l 307 1233 l 494 1353 m 441 1284 l 441 1052 l 565 1052 l 565 1284 l 441 1284 z "},"Æ":{"ha":1290,"x_min":14,"x_max":1317,"o":"m 667 292 l 492 169 l 486 766 l 302 769 q 248 770 275 769 l 246 589 l 460 585 q 286 401 373 493 l 245 401 l 242 -6 l 20 -162 q 17 323 18 81 l 14 636 l 222 838 q 350 963 286 901 l 618 971 q 713 974 666 972 l 715 867 q 732 882 724 875 l 830 968 l 1317 968 l 1121 772 l 901 772 l 901 588 l 1281 588 l 1078 382 l 901 382 l 901 197 l 1240 197 l 1006 -7 l 829 -7 q 677 120 753 57 q 667 130 673 125 l 667 292 z "},"Ç":{"ha":616,"x_min":14,"x_max":622,"o":"m 277 1 l 252 -22 l 231 -41 l 323 -41 l 323 -164 l 221 -254 q 162 -305 192 -279 l 14 -305 l 14 -199 l 198 -199 l 198 -139 l 84 -139 l 162 -48 l 162 3 l 20 6 q 22 355 21 181 q 24 652 23 504 q 252 863 138 757 q 375 977 313 920 l 450 976 l 578 975 l 578 795 q 364 794 471 795 l 257 794 l 253 373 q 251 188 252 281 q 436 186 344 187 q 622 184 529 185 q 486 42 554 113 l 443 -3 l 277 1 z "},"È":{"ha":654,"x_min":32,"x_max":682,"o":"m 32 829 q 97 886 64 858 l 195 971 l 682 971 l 486 776 l 266 776 l 266 591 l 646 591 l 442 385 l 266 385 l 266 200 l 604 200 l 370 -3 l 193 -3 q 42 123 118 60 q 32 133 37 128 l 32 829 m 491 1226 q 433 1112 462 1168 q 368 984 401 1048 l 329 1064 q 224 1279 277 1172 q 316 1324 270 1301 q 414 1373 366 1349 q 456 1295 435 1334 q 491 1226 473 1261 z "},"É":{"ha":654,"x_min":32,"x_max":682,"o":"m 260 1230 q 302 1295 281 1263 q 351 1369 327 1332 l 444 1310 q 531 1255 488 1283 q 405 1053 468 1154 q 358 977 381 1015 l 307 1110 q 260 1230 283 1170 m 32 829 q 97 886 64 858 l 195 971 l 682 971 l 486 776 l 266 776 l 266 591 l 646 591 l 442 385 l 266 385 l 266 200 l 604 200 l 370 -3 l 193 -3 q 42 123 118 60 q 32 133 37 128 l 32 829 z "},"Ê":{"ha":654,"x_min":32,"x_max":682,"o":"m 194 1040 l 413 1297 l 634 1040 l 448 1040 l 448 1148 l 370 1148 l 370 1040 l 194 1040 m 32 829 q 97 886 64 858 l 195 971 l 682 971 l 486 776 l 266 776 l 266 591 l 646 591 l 442 385 l 266 385 l 266 200 l 604 200 l 370 -3 l 193 -3 q 42 123 118 60 q 32 133 37 128 l 32 829 z "},"Ë":{"ha":654,"x_min":32,"x_max":682,"o":"m 32 829 q 97 886 64 858 l 195 971 l 682 971 l 486 776 l 266 776 l 266 591 l 646 591 l 442 385 l 266 385 l 266 200 l 604 200 l 370 -3 l 193 -3 q 42 123 118 60 q 32 133 37 128 l 32 829 m 145 1057 l 145 1272 l 371 1272 l 371 1057 l 145 1057 m 423 1057 l 423 1272 l 649 1272 l 649 1057 l 423 1057 z "},"Ì":{"ha":375,"x_min":28,"x_max":294,"o":"m 294 1216 q 236 1101 265 1158 q 172 974 204 1038 l 132 1054 q 28 1269 80 1162 q 119 1314 73 1291 q 218 1363 169 1339 q 259 1284 238 1324 q 294 1216 277 1251 m 52 972 l 283 972 l 283 35 l 63 -173 l 52 -173 l 52 972 z "},"Í":{"ha":380,"x_min":28,"x_max":299,"o":"m 28 1230 q 71 1295 50 1263 q 119 1369 95 1332 l 212 1310 q 299 1255 256 1283 q 173 1053 236 1154 q 126 977 149 1015 l 75 1110 q 28 1230 52 1170 m 28 972 l 259 972 l 259 35 l 39 -173 l 28 -173 l 28 972 z "},"Î":{"ha":366,"x_min":-52,"x_max":388,"o":"m -52 1065 l 167 1322 l 388 1065 l 202 1065 l 202 1173 l 124 1173 l 124 1065 l -52 1065 m 52 972 l 283 972 l 283 35 l 62 -173 l 52 -173 l 52 972 z "},"Ï":{"ha":394,"x_min":-87,"x_max":416,"o":"m 41 972 l 272 972 l 272 35 l 52 -173 l 41 -173 l 41 972 m -87 1057 l -87 1272 l 138 1272 l 138 1057 l -87 1057 m 191 1057 l 191 1272 l 416 1272 l 416 1057 l 191 1057 z "},"Ð":{"ha":1032,"x_min":-73,"x_max":978,"o":"m 520 392 l 520 176 l 739 176 l 739 777 l 520 777 l 520 568 l 720 568 q 616 461 668 515 q 549 392 583 427 l 520 392 m 284 568 l 288 974 q 472 972 380 972 l 779 969 q 886 881 832 925 q 978 805 932 843 l 974 581 q 969 324 972 452 q 853 214 911 269 l 624 0 l 486 -1 l 279 -3 l 282 391 q 148 391 201 391 q -73 390 37 391 q 36 503 -19 446 q 100 568 68 535 l 284 568 z "},"Ñ":{"ha":756,"x_min":14,"x_max":702,"o":"m 121 1138 l 121 1299 l 323 1299 l 420 1172 l 702 1172 l 702 997 l 509 997 l 401 1138 l 121 1138 m 355 970 l 680 970 l 680 326 l 448 159 l 448 772 l 240 772 l 240 10 l 14 -151 l 14 645 q 50 678 32 661 q 355 970 203 824 z "},"Ò":{"ha":777,"x_min":14,"x_max":712,"o":"m 603 1223 q 545 1108 574 1165 q 480 981 513 1044 l 441 1061 q 336 1276 389 1168 q 428 1321 382 1298 q 526 1370 477 1345 q 568 1291 547 1331 q 603 1223 585 1257 m 346 971 l 712 971 l 712 322 l 371 0 l 16 0 l 14 658 l 346 971 m 253 791 l 253 189 l 472 189 l 472 791 l 253 791 z "},"Ó":{"ha":777,"x_min":14,"x_max":712,"o":"m 382 1240 q 425 1305 404 1273 q 474 1379 450 1342 l 567 1320 q 654 1265 610 1293 q 528 1063 591 1164 q 481 987 504 1025 l 429 1120 q 382 1240 406 1180 m 346 971 l 712 971 l 712 322 l 371 0 l 16 0 l 14 658 l 346 971 m 253 791 l 253 189 l 472 189 l 472 791 l 253 791 z "},"Ô":{"ha":785,"x_min":14,"x_max":720,"o":"m 280 1038 l 499 1295 l 720 1038 l 534 1038 l 534 1146 l 456 1146 l 456 1038 l 280 1038 m 346 971 l 712 971 l 712 322 l 371 0 l 16 0 l 14 658 l 346 971 m 253 791 l 253 189 l 472 189 l 472 791 l 253 791 z "},"Õ":{"ha":777,"x_min":14,"x_max":712,"o":"m 346 971 l 712 971 l 712 322 l 371 0 l 16 0 l 14 658 l 346 971 m 253 791 l 253 189 l 472 189 l 472 791 l 253 791 m 122 1138 l 122 1299 l 324 1299 l 421 1172 l 703 1172 l 703 997 l 510 997 l 402 1138 l 122 1138 z "},"Ö":{"ha":777,"x_min":14,"x_max":712,"o":"m 346 971 l 712 971 l 712 322 l 371 0 l 16 0 l 14 658 l 346 971 m 253 791 l 253 189 l 472 189 l 472 791 l 253 791 m 147 1057 l 147 1272 l 373 1272 l 373 1057 l 147 1057 m 425 1057 l 425 1272 l 651 1272 l 651 1057 l 425 1057 z "},"×":{"ha":688,"x_min":145,"x_max":544,"o":"m 145 151 l 146 429 l 229 494 l 146 494 l 146 850 l 284 850 l 284 544 l 340 620 l 401 621 l 401 850 l 544 850 l 544 684 l 462 621 l 544 621 l 544 451 l 477 391 l 401 323 l 401 564 l 361 492 l 284 494 l 284 254 l 145 151 z "},"Ø":{"ha":833,"x_min":-87,"x_max":806,"o":"m 363 189 l 521 189 l 521 459 l 363 189 m 446 791 l 301 791 l 301 549 l 446 791 m 306 91 l 220 -56 l -78 -110 l -87 -104 l 128 258 l 61 322 l 61 971 l 427 971 l 507 895 l 612 1072 l 806 946 l 680 732 l 759 658 l 757 0 l 402 0 l 306 91 z "},"Ù":{"ha":831,"x_min":54,"x_max":777,"o":"m 541 1223 q 483 1108 512 1165 q 418 981 451 1044 l 379 1061 q 275 1276 327 1168 q 366 1321 320 1298 q 465 1370 416 1345 q 506 1291 485 1331 q 541 1223 524 1257 m 431 0 l 54 0 l 54 968 l 285 968 l 285 190 l 548 190 l 548 968 l 777 968 l 777 332 q 572 135 675 233 q 431 0 501 67 z "},"Ú":{"ha":831,"x_min":54,"x_max":777,"o":"m 309 1210 q 351 1274 330 1242 q 400 1348 376 1312 l 493 1290 q 580 1235 536 1263 q 454 1032 517 1134 q 407 957 430 994 l 355 1090 q 309 1210 332 1149 m 431 0 l 54 0 l 54 968 l 285 968 l 285 190 l 548 190 l 548 968 l 777 968 l 777 332 q 572 135 675 233 q 431 0 501 67 z "},"Û":{"ha":831,"x_min":54,"x_max":777,"o":"m 205 1065 l 424 1322 l 645 1065 l 459 1065 l 459 1173 l 381 1173 l 381 1065 l 205 1065 m 431 0 l 54 0 l 54 968 l 285 968 l 285 190 l 548 190 l 548 968 l 777 968 l 777 332 q 572 135 675 233 q 431 0 501 67 z "},"Ü":{"ha":831,"x_min":54,"x_max":777,"o":"m 431 0 l 54 0 l 54 968 l 285 968 l 285 190 l 548 190 l 548 968 l 777 968 l 777 332 q 572 135 675 233 q 431 0 501 67 m 160 1057 l 160 1272 l 386 1272 l 386 1057 l 160 1057 m 438 1057 l 438 1272 l 664 1272 l 664 1057 l 438 1057 z "},"Ý":{"ha":732,"x_min":40,"x_max":725,"o":"m 280 1230 q 323 1295 302 1263 q 372 1369 347 1332 l 465 1310 q 551 1255 508 1283 q 425 1053 488 1154 q 378 977 401 1015 l 327 1110 q 280 1230 304 1170 m 308 393 l 40 393 l 40 969 l 272 969 l 272 596 l 488 596 l 488 969 l 725 969 l 725 710 l 414 422 l 414 30 l 312 -46 q 166 -155 239 -101 l 166 279 l 308 393 z "},"Þ":{"ha":779,"x_min":54,"x_max":743,"o":"m 294 642 l 294 244 l 513 244 l 513 642 l 294 642 m 54 1067 l 285 1067 l 285 836 l 553 833 q 661 745 606 789 q 739 669 706 707 l 743 392 q 627 282 685 337 l 398 68 l 285 66 l 285 -80 l 64 -288 l 54 -288 l 54 1067 z "},"à":{"ha":778,"x_min":14,"x_max":723,"o":"m 14 636 l 221 838 q 349 963 285 901 l 618 971 q 712 974 665 972 l 723 331 l 492 169 l 485 766 l 302 769 q 247 770 274 769 l 245 589 l 459 585 q 285 401 372 493 l 244 401 l 241 -6 l 20 -162 q 16 323 18 81 l 14 636 m 583 1223 q 525 1108 554 1165 q 460 981 493 1044 l 421 1061 q 317 1276 369 1168 q 408 1321 362 1298 q 507 1370 458 1345 q 548 1291 527 1331 q 583 1223 566 1257 z "},"á":{"ha":778,"x_min":14,"x_max":723,"o":"m 496 968 l 445 1099 q 398 1219 422 1158 q 441 1283 420 1251 q 490 1357 465 1320 l 583 1299 q 669 1244 626 1272 q 543 1041 606 1143 q 498 968 520 1004 l 618 971 q 712 974 665 972 l 723 331 l 492 169 l 485 766 l 302 769 q 247 770 274 769 l 245 589 l 459 585 q 285 401 372 493 l 244 401 l 241 -6 l 20 -162 q 16 323 18 81 l 14 636 l 221 838 q 349 963 285 901 l 496 968 z "},"â":{"ha":778,"x_min":14,"x_max":723,"o":"m 14 636 l 221 838 q 349 963 285 901 l 618 971 q 712 974 665 972 l 723 331 l 492 169 l 485 766 l 302 769 q 247 770 274 769 l 245 589 l 459 585 q 285 401 372 493 l 244 401 l 241 -6 l 20 -162 q 16 323 18 81 l 14 636 m 274 1065 l 493 1322 l 714 1065 l 528 1065 l 528 1173 l 450 1173 l 450 1065 l 274 1065 z "},"ã":{"ha":778,"x_min":14,"x_max":723,"o":"m 14 636 l 221 838 q 349 963 285 901 l 618 971 q 712 974 665 972 l 723 331 l 492 169 l 485 766 l 302 769 q 247 770 274 769 l 245 589 l 459 585 q 285 401 372 493 l 244 401 l 241 -6 l 20 -162 q 16 323 18 81 l 14 636 m 102 1138 l 102 1299 l 304 1299 l 401 1172 l 684 1172 l 684 997 l 490 997 l 382 1138 l 102 1138 z "},"ä":{"ha":778,"x_min":14,"x_max":723,"o":"m 14 636 l 221 838 q 349 963 285 901 l 618 971 q 712 974 665 972 l 723 331 l 492 169 l 485 766 l 302 769 q 247 770 274 769 l 245 589 l 459 585 q 285 401 372 493 l 244 401 l 241 -6 l 20 -162 q 16 323 18 81 l 14 636 m 168 1046 l 168 1261 l 394 1261 l 394 1046 l 168 1046 m 446 1046 l 446 1261 l 672 1261 l 672 1046 l 446 1046 z "},"å":{"ha":778,"x_min":14,"x_max":723,"o":"m 14 636 l 221 838 q 349 963 285 901 l 618 971 q 712 974 665 972 l 723 331 l 492 169 l 485 766 l 302 769 q 247 770 274 769 l 245 589 l 459 585 q 285 401 372 493 l 244 401 l 241 -6 l 20 -162 q 16 323 18 81 l 14 636 m 493 1353 l 700 1353 l 700 1103 l 507 979 l 307 979 l 306 1233 l 493 1353 m 441 1284 l 441 1052 l 564 1052 l 564 1284 l 441 1284 z "},"æ":{"ha":1289,"x_min":14,"x_max":1316,"o":"m 667 292 l 492 169 l 485 766 l 302 769 q 247 770 274 769 l 245 589 l 459 585 q 285 401 372 493 l 244 401 l 241 -6 l 20 -162 q 16 323 18 81 l 14 636 l 221 838 q 349 963 285 901 l 618 971 q 712 974 665 972 l 714 867 q 732 882 723 875 l 829 968 l 1316 968 l 1120 772 l 901 772 l 901 588 l 1280 588 l 1077 382 l 901 382 l 901 197 l 1239 197 l 1005 -7 l 828 -7 q 677 120 753 57 q 667 130 672 125 l 667 292 z "},"ç":{"ha":614,"x_min":14,"x_max":621,"o":"m 277 1 l 251 -22 l 231 -41 l 323 -41 l 323 -164 l 220 -254 q 161 -305 191 -279 l 14 -305 l 14 -199 l 197 -199 l 197 -139 l 83 -139 l 161 -48 l 161 3 l 20 6 q 22 355 20 181 q 24 652 22 504 q 251 863 137 757 q 374 977 313 920 l 449 976 l 577 975 l 577 795 q 363 794 471 795 l 256 794 l 252 373 q 250 188 252 281 q 435 186 343 187 q 621 184 528 185 q 486 42 553 113 l 442 -3 l 277 1 z "},"è":{"ha":660,"x_min":38,"x_max":688,"o":"m 38 829 q 103 886 71 858 l 201 971 l 688 971 l 492 776 l 272 776 l 272 591 l 652 591 l 448 385 l 272 385 l 272 200 l 610 200 l 376 -3 l 199 -3 q 48 123 124 60 q 38 133 43 128 l 38 829 m 497 1226 q 439 1112 468 1168 q 374 984 407 1048 l 335 1064 q 231 1279 283 1172 q 322 1324 276 1301 q 420 1373 372 1349 q 462 1295 441 1334 q 497 1226 479 1261 z "},"é":{"ha":660,"x_min":38,"x_max":688,"o":"m 356 971 l 313 1083 q 266 1203 290 1143 q 309 1267 288 1236 q 357 1341 333 1305 l 450 1283 q 537 1228 494 1256 q 411 1025 474 1127 l 377 971 l 688 971 l 492 776 l 272 776 l 272 591 l 652 591 l 448 385 l 272 385 l 272 200 l 610 200 l 376 -3 l 199 -3 q 48 123 124 60 q 38 133 43 128 l 38 829 q 103 886 71 858 l 201 971 l 356 971 z "},"ê":{"ha":660,"x_min":38,"x_max":688,"o":"m 200 1040 l 419 1297 l 640 1040 l 454 1040 l 454 1148 l 376 1148 l 376 1040 l 200 1040 m 38 829 q 103 886 71 858 l 201 971 l 688 971 l 492 776 l 272 776 l 272 591 l 652 591 l 448 385 l 272 385 l 272 200 l 610 200 l 376 -3 l 199 -3 q 48 123 124 60 q 38 133 43 128 l 38 829 z "},"ë":{"ha":660,"x_min":38,"x_max":688,"o":"m 38 829 q 103 886 71 858 l 201 971 l 688 971 l 492 776 l 272 776 l 272 591 l 652 591 l 448 385 l 272 385 l 272 200 l 610 200 l 376 -3 l 199 -3 q 48 123 124 60 q 38 133 43 128 l 38 829 m 151 1057 l 151 1272 l 377 1272 l 377 1057 l 151 1057 m 429 1057 l 429 1272 l 655 1272 l 655 1057 l 429 1057 z "},"ì":{"ha":363,"x_min":21,"x_max":288,"o":"m 288 1216 q 229 1101 258 1158 q 165 974 197 1038 l 125 1054 q 21 1269 73 1162 q 113 1314 66 1291 q 211 1363 162 1339 q 252 1284 231 1324 q 288 1216 270 1251 m 45 972 l 277 972 l 277 35 l 56 -173 l 45 -173 l 45 972 z "},"í":{"ha":310,"x_min":21,"x_max":292,"o":"m 111 972 l 68 1083 q 21 1203 45 1143 q 64 1267 43 1236 q 113 1341 88 1305 l 205 1283 q 292 1228 249 1256 q 166 1025 229 1127 q 133 972 149 999 l 252 972 l 252 35 l 32 -173 l 21 -173 l 21 972 l 111 972 z "},"î":{"ha":364,"x_min":-50,"x_max":390,"o":"m -50 1065 l 169 1322 l 390 1065 l 204 1065 l 204 1173 l 126 1173 l 126 1065 l -50 1065 m 54 972 l 285 972 l 285 35 l 64 -173 l 54 -173 l 54 972 z "},"ï":{"ha":393,"x_min":-50,"x_max":454,"o":"m 78 972 l 309 972 l 309 35 l 89 -173 l 78 -173 l 78 972 m -50 1057 l -50 1272 l 176 1272 l 176 1057 l -50 1057 m 228 1057 l 228 1272 l 454 1272 l 454 1057 l 228 1057 z "},"ð":{"ha":1026,"x_min":-73,"x_max":978,"o":"m 520 392 l 520 176 l 739 176 l 739 777 l 520 777 l 520 568 l 720 568 q 616 461 668 515 q 549 392 583 427 l 520 392 m 284 568 l 288 974 q 472 972 380 972 l 779 969 q 886 881 832 925 q 978 805 932 843 l 974 581 q 969 324 972 452 q 853 214 911 269 l 624 0 l 486 -1 l 279 -3 l 282 391 q 148 391 201 391 q -73 390 37 391 q 36 503 -19 446 q 100 568 68 535 l 284 568 z "},"ñ":{"ha":756,"x_min":14,"x_max":701,"o":"m 120 1138 l 120 1299 l 322 1299 l 419 1172 l 701 1172 l 701 997 l 508 997 l 400 1138 l 120 1138 m 355 970 l 680 970 l 680 326 l 447 159 l 447 772 l 239 772 l 239 10 l 14 -151 l 14 645 q 49 678 31 661 q 355 970 202 824 z "},"ò":{"ha":774,"x_min":14,"x_max":711,"o":"m 602 1223 q 544 1108 573 1165 q 479 981 512 1044 l 440 1061 q 336 1276 388 1168 q 427 1321 381 1298 q 526 1370 477 1345 q 567 1291 546 1331 q 602 1223 585 1257 m 345 971 l 711 971 l 711 322 l 370 0 l 16 0 l 14 658 l 345 971 m 252 791 l 252 189 l 471 189 l 471 791 l 252 791 z "},"ó":{"ha":774,"x_min":14,"x_max":711,"o":"m 382 1240 q 425 1305 404 1273 q 473 1379 449 1342 l 566 1320 q 653 1265 610 1293 q 527 1063 590 1164 q 480 987 503 1025 l 429 1120 q 382 1240 406 1180 m 345 971 l 711 971 l 711 322 l 370 0 l 16 0 l 14 658 l 345 971 m 252 791 l 252 189 l 471 189 l 471 791 l 252 791 z "},"ô":{"ha":768,"x_min":14,"x_max":720,"o":"m 279 1038 l 498 1295 l 720 1038 l 534 1038 l 534 1146 l 456 1146 l 456 1038 l 279 1038 m 345 971 l 711 971 l 711 322 l 370 0 l 16 0 l 14 658 l 345 971 m 252 791 l 252 189 l 471 189 l 471 791 l 252 791 z "},"õ":{"ha":774,"x_min":14,"x_max":711,"o":"m 345 971 l 711 971 l 711 322 l 370 0 l 16 0 l 14 658 l 345 971 m 252 791 l 252 189 l 471 189 l 471 791 l 252 791 m 121 1138 l 121 1299 l 323 1299 l 420 1172 l 703 1172 l 703 997 l 509 997 l 401 1138 l 121 1138 z "},"ö":{"ha":774,"x_min":14,"x_max":711,"o":"m 345 971 l 711 971 l 711 322 l 370 0 l 16 0 l 14 658 l 345 971 m 252 791 l 252 189 l 471 189 l 471 791 l 252 791 m 146 1057 l 146 1272 l 372 1272 l 372 1057 l 146 1057 m 425 1057 l 425 1272 l 650 1272 l 650 1057 l 425 1057 z "},"÷":{"ha":688,"x_min":-131,"x_max":750,"o":"m -131 432 q -35 545 -83 488 q 21 610 -7 577 l 750 610 q 659 503 705 557 l 600 434 q 63 433 171 433 q -131 432 -34 433 m 211 653 l 211 837 l 404 837 l 404 653 l 211 653 m 211 212 l 211 396 l 404 396 l 404 212 l 211 212 z "},"ø":{"ha":817,"x_min":-101,"x_max":792,"o":"m 349 189 l 507 189 l 507 459 l 349 189 m 432 791 l 288 791 l 288 549 l 432 791 m 292 91 l 206 -56 l -92 -110 l -101 -104 l 115 258 l 47 322 l 47 971 l 414 971 l 494 895 l 599 1072 l 792 946 l 667 732 l 745 658 l 743 0 l 389 0 l 292 91 z "},"ù":{"ha":823,"x_min":45,"x_max":768,"o":"m 532 1223 q 474 1108 503 1165 q 410 981 442 1044 l 370 1061 q 266 1276 318 1168 q 357 1321 311 1298 q 456 1370 407 1345 q 497 1291 476 1331 q 532 1223 515 1257 m 422 0 l 45 0 l 45 968 l 276 968 l 276 190 l 539 190 l 539 968 l 768 968 l 768 332 q 563 135 666 233 q 422 0 492 67 z "},"ú":{"ha":823,"x_min":45,"x_max":768,"o":"m 300 1210 q 342 1274 321 1242 q 391 1348 367 1312 l 484 1290 q 571 1235 528 1263 q 445 1032 508 1134 q 398 957 421 994 l 347 1090 q 300 1210 323 1149 m 422 0 l 45 0 l 45 968 l 276 968 l 276 190 l 539 190 l 539 968 l 768 968 l 768 332 q 563 135 666 233 q 422 0 492 67 z "},"û":{"ha":823,"x_min":45,"x_max":768,"o":"m 196 1065 l 415 1322 l 636 1065 l 450 1065 l 450 1173 l 372 1173 l 372 1065 l 196 1065 m 422 0 l 45 0 l 45 968 l 276 968 l 276 190 l 539 190 l 539 968 l 768 968 l 768 332 q 563 135 666 233 q 422 0 492 67 z "},"ü":{"ha":823,"x_min":45,"x_max":768,"o":"m 422 0 l 45 0 l 45 968 l 276 968 l 276 190 l 539 190 l 539 968 l 768 968 l 768 332 q 563 135 666 233 q 422 0 492 67 m 151 1057 l 151 1272 l 377 1272 l 377 1057 l 151 1057 m 429 1057 l 429 1272 l 655 1272 l 655 1057 l 429 1057 z "},"ý":{"ha":732,"x_min":42,"x_max":727,"o":"m 282 1230 q 325 1295 304 1263 q 374 1369 349 1332 l 467 1310 q 553 1255 510 1283 q 427 1053 490 1154 q 380 977 404 1015 l 329 1110 q 282 1230 306 1170 m 310 393 l 42 393 l 42 969 l 274 969 l 274 596 l 490 596 l 490 969 l 727 969 l 727 710 l 416 422 l 416 30 l 314 -46 q 168 -155 241 -101 l 168 279 l 310 393 z "},"þ":{"ha":768,"x_min":45,"x_max":734,"o":"m 286 642 l 286 244 l 505 244 l 505 642 l 286 642 m 45 1067 l 276 1067 l 276 836 l 544 833 q 652 745 597 789 q 730 669 697 707 l 734 392 q 618 282 676 337 l 389 68 l 276 66 l 276 -80 l 56 -288 l 45 -288 l 45 1067 z "},"ÿ":{"ha":732,"x_min":42,"x_max":727,"o":"m 310 393 l 42 393 l 42 969 l 274 969 l 274 596 l 490 596 l 490 969 l 727 969 l 727 710 l 416 422 l 416 30 l 314 -46 q 168 -155 241 -101 l 168 279 l 310 393 m 174 1057 l 174 1272 l 400 1272 l 400 1057 l 174 1057 m 452 1057 l 452 1272 l 678 1272 l 678 1057 l 452 1057 z "},"–":{"ha":863,"x_min":-7,"x_max":873,"o":"m -7 277 q 88 389 40 333 q 144 455 116 422 l 873 455 q 782 348 828 401 l 724 279 q 186 277 294 278 q -7 277 90 277 z "},"—":{"ha":1389,"x_min":-7,"x_max":1409,"o":"m -7 277 q 88 389 40 333 q 144 455 116 422 l 1409 455 q 1318 348 1364 401 l 1259 279 q 186 277 294 278 q -7 277 90 277 z "},"‘":{"ha":250,"x_min":0,"x_max":218,"o":"m 0 814 l 123 907 q 218 977 171 941 q 217 888 218 932 l 216 649 q 110 648 163 648 l 3 648 q 1 748 3 698 l 0 814 z "},"’":{"ha":243,"x_min":0,"x_max":218,"o":"m 218 810 l 94 718 q 0 648 47 684 q 1 737 1 692 l 2 976 q 108 977 55 977 l 214 977 q 216 877 215 927 l 218 810 z "},"‚":{"ha":254,"x_min":0,"x_max":218,"o":"m 218 3 l 94 -89 q 0 -159 47 -123 q 1 -70 1 -115 l 2 169 q 108 170 55 170 l 214 170 q 216 70 215 120 l 218 3 z "},"“":{"ha":469,"x_min":0,"x_max":448,"o":"m 231 814 l 354 907 q 448 977 401 941 q 448 888 448 932 l 446 649 q 340 648 393 648 l 234 648 q 232 748 233 698 l 231 814 m 0 814 l 123 907 q 218 977 171 941 q 217 888 218 932 l 216 649 q 110 648 163 648 l 3 648 q 1 748 3 698 l 0 814 z "},"”":{"ha":472,"x_min":0,"x_max":448,"o":"m 218 810 l 94 718 q 0 648 47 684 q 1 737 1 692 l 2 976 q 108 977 55 977 l 214 977 q 216 877 215 927 l 218 810 m 448 810 l 325 718 q 231 648 277 684 q 231 737 231 692 l 233 976 q 338 977 286 977 l 445 977 q 447 877 446 927 l 448 810 z "},"„":{"ha":465,"x_min":3,"x_max":452,"o":"m 221 -71 l 98 -163 q 3 -233 50 -197 q 4 -144 4 -189 l 5 95 q 111 96 58 96 l 218 96 q 220 -4 218 46 l 221 -71 m 452 -71 l 328 -163 q 234 -233 281 -197 q 235 -144 235 -189 l 236 95 q 342 96 289 96 l 448 96 q 450 -4 449 46 l 452 -71 z "},"•":{"ha":363,"x_min":3,"x_max":339,"o":"m 3 403 l 3 722 l 339 722 l 339 403 l 3 403 z "},"…":{"ha":1389,"x_min":7,"x_max":1387,"o":"m 7 1 l 7 185 l 200 185 l 200 1 l 7 1 m 1194 1 l 1194 185 l 1387 185 l 1387 1 l 1194 1 m 604 1 l 604 185 l 797 185 l 797 1 l 604 1 z "},"€":{"ha":725,"x_min":1,"x_max":683,"o":"m 106 340 l 1 340 l 1 450 l 101 450 q 102 516 101 482 l 1 516 l 1 626 l 106 626 q 168 810 115 721 q 366 948 229 905 q 551 965 452 965 q 683 958 614 965 l 683 773 q 568 778 621 778 q 455 771 505 778 q 393 745 414 762 q 365 707 372 728 q 353 626 353 666 l 543 626 l 543 516 l 353 516 l 353 450 l 543 450 l 543 340 l 353 340 q 365 259 353 299 q 393 221 372 238 q 455 195 414 203 q 564 188 503 188 q 683 193 618 188 l 683 9 q 551 1 614 1 q 366 18 452 1 q 168 157 229 62 q 106 340 115 245 z "},"−":{"ha":838,"x_min":-7,"x_max":873,"o":"m -7 277 q 88 389 40 333 q 144 455 116 422 l 873 455 q 782 348 828 401 l 724 279 q 186 277 294 278 q -7 277 90 277 z "}}}
